<?xml version="1.0" standalone="no"?>
<!DOCTYPE svg PUBLIC "-//W3C//DTD SVG 20010904//EN"
 "http://www.w3.org/TR/2001/REC-SVG-20010904/DTD/svg10.dtd">
<svg version="1.0" xmlns="http://www.w3.org/2000/svg"
 width="1024.000000pt" height="1024.000000pt" viewBox="0 0 1024.000000 1024.000000"
 preserveAspectRatio="xMidYMid meet">
<metadata>
Created by potrace 1.16, written by Peter Selinger 2001-2019
</metadata>
<g transform="translate(0.000000,1024.000000) scale(0.100000,-0.100000)"
fill="#000000" stroke="none">
<path d="M4900 9373 c-281 -12 -687 -83 -955 -166 -368 -114 -781 -319 -1093
-540 -680 -482 -1219 -1234 -1456 -2029 -130 -439 -174 -759 -163 -1188 9
-319 38 -545 108 -825 85 -337 212 -650 397 -977 76 -135 69 -131 194 -99 268
69 615 350 823 666 129 197 211 369 345 725 140 371 401 791 571 917 l50 38
-49 7 c-28 4 -74 17 -104 28 -88 33 -244 132 -233 149 2 5 -8 19 -23 32 l-27
24 24 -27 c50 -57 3 -25 -67 45 -65 66 -91 100 -60 81 7 -4 8 -3 4 5 -4 6 -11
9 -16 6 -15 -9 -76 83 -140 210 -169 338 -182 799 -34 1217 37 104 135 297
196 386 136 196 372 393 625 521 386 194 895 271 1368 205 527 -73 950 -346
1150 -744 83 -164 111 -296 102 -478 -14 -315 -148 -551 -422 -747 -112 -81
-272 -158 -326 -157 -22 1 -40 -1 -38 -3 2 -2 58 -12 124 -24 154 -26 277 -67
443 -146 166 -80 261 -145 380 -260 231 -222 342 -505 342 -875 0 -421 -171
-752 -505 -972 -49 -33 -110 -70 -135 -83 -77 -39 -217 -84 -333 -107 -109
-22 -135 -22 -893 -26 -524 -2 -789 1 -808 7 -26 10 -27 14 -24 68 l3 57 61
11 c89 16 124 40 159 110 l30 60 0 1700 0 1700 -26 56 c-28 59 -61 89 -122
108 -39 13 -51 35 -44 81 l4 25 379 0 379 0 0 -703 0 -702 67 0 c273 0 526
162 634 405 53 120 68 207 68 390 0 128 -4 187 -17 237 -76 302 -263 529 -523
635 -160 65 -220 76 -414 77 -190 0 -284 -14 -447 -70 -193 -65 -429 -216
-576 -368 -396 -409 -500 -1067 -251 -1581 120 -248 379 -390 646 -356 46 6
93 13 106 17 21 6 22 3 22 -44 0 -49 -1 -51 -46 -77 -58 -34 -190 -159 -259
-245 -120 -151 -225 -351 -385 -735 -192 -463 -344 -700 -598 -931 -355 -323
-910 -646 -1187 -691 -19 -3 -35 -7 -35 -9 0 -18 250 -358 344 -468 345 -406
688 -684 1157 -936 442 -239 888 -379 1360 -426 289 -29 668 -12 969 42 512
93 1136 377 1556 709 418 330 789 747 1041 1171 326 546 515 1119 564 1712 15
177 6 658 -15 822 -50 398 -152 772 -310 1138 -66 152 -279 518 -296 507 -5
-3 -12 0 -16 6 -5 8 -3 9 6 4 8 -5 11 -3 8 6 -3 8 -10 14 -15 14 -6 0 -15 4
-20 9 -5 5 -2 6 6 1 9 -5 12 -3 9 6 -3 8 -10 14 -16 14 -6 0 -17 7 -24 15 -11
12 -11 12 5 1 23 -18 22 -6 -4 30 -11 16 -24 27 -29 24 -5 -3 -12 0 -16 6 -4
8 -3 9 4 5 18 -11 14 10 -5 25 -15 12 -16 12 -8 -1 5 -9 0 -8 -13 4 -25 21
-31 36 -7 16 8 -7 15 -8 15 -2 0 12 -25 34 -32 27 -3 -3 -11 3 -19 12 -13 16
-12 17 4 4 9 -7 17 -9 17 -4 0 16 -36 44 -45 36 -4 -5 -5 -3 -1 4 4 7 -7 26
-25 45 -17 18 -26 24 -18 13 7 -11 -4 -4 -24 14 -20 19 -37 37 -37 40 0 2 11
-6 25 -19 14 -13 25 -19 25 -14 0 5 -21 30 -47 54 -26 25 -39 34 -28 20 l20
-25 -28 24 c-27 24 -36 38 -17 26 6 -3 10 -2 10 2 0 12 -263 273 -275 273 -5
0 9 -19 30 -42 33 -36 31 -35 -13 7 -52 49 -68 70 -34 44 9 -7 4 1 -12 19 -31
33 -58 45 -35 15 7 -10 -1 -5 -19 11 -36 34 -44 49 -9 20 12 -10 9 -4 -7 14
-31 33 -59 45 -35 15 13 -16 12 -17 -3 -4 -10 7 -16 17 -13 21 6 9 -76 80 -91
80 -5 0 9 -16 31 -36 l40 -36 -43 32 c-24 18 -41 35 -38 38 7 7 -14 32 -26 32
-6 0 -4 -8 3 -17 13 -16 12 -17 -4 -4 -9 8 -15 16 -12 19 7 7 -15 32 -27 32
-6 0 -4 -8 3 -17 13 -16 12 -17 -3 -5 -10 8 -16 19 -15 24 1 6 -4 13 -12 16
-9 3 -11 0 -6 -8 5 -9 4 -11 -4 -6 -6 4 -9 11 -6 16 3 5 -8 18 -24 29 -36 26
-48 27 -30 4 11 -16 11 -16 -1 -5 -8 7 -15 18 -15 24 0 6 -6 13 -14 16 -9 3
-11 0 -6 -8 5 -9 4 -11 -4 -6 -6 4 -9 11 -6 16 3 4 -17 22 -43 39 -51 33 -68
38 -56 19 4 -7 3 -8 -5 -4 -6 4 -9 11 -6 16 11 18 -322 197 -514 275 -437 178
-819 264 -1306 295 -153 9 -186 10 -335 3z m-551 -5768 c35 -18 89 -78 96
-108 3 -12 6 -40 8 -62 l2 -40 -59 0 c-59 0 -60 1 -68 32 -11 42 -52 73 -95
73 -71 0 -104 -44 -79 -104 12 -29 30 -42 120 -85 120 -59 158 -96 176 -173
25 -101 -11 -200 -87 -245 -42 -24 -58 -28 -128 -28 -66 0 -88 5 -125 25 -62
35 -100 92 -107 163 l-6 57 70 0 70 0 -5 -28 c-6 -45 32 -83 90 -89 43 -5 50
-3 79 26 27 28 31 37 26 68 -9 51 -40 80 -132 123 -140 65 -175 109 -175 221
0 99 44 162 130 188 44 13 163 5 199 -14z m1707 10 c87 -26 144 -107 144 -205
l0 -50 -60 0 c-57 0 -60 1 -60 24 0 101 -91 150 -162 87 l-33 -29 -3 -184 c-3
-178 -3 -184 20 -218 57 -84 160 -50 177 58 l6 37 55 0 55 0 3 -37 c8 -94 -51
-184 -140 -214 -112 -37 -225 2 -278 96 -25 44 -25 49 -25 265 0 196 2 224 19
255 57 108 163 151 282 115z m1255 4 c68 -15 122 -63 146 -132 26 -76 26 -400
0 -469 -57 -147 -252 -196 -367 -92 -66 60 -75 100 -75 324 0 193 0 195 28
252 31 63 71 94 147 114 58 16 59 16 121 3z m-4159 -20 c48 -12 93 -51 121
-103 20 -38 22 -54 22 -231 0 -104 -3 -206 -8 -226 -10 -50 -77 -124 -130
-144 -33 -12 -72 -15 -177 -13 l-135 3 -3 362 -2 362 32 3 c59 6 242 -3 280
-13z m719 11 c26 0 27 -2 24 -52 -1 -29 -3 -56 -4 -60 0 -5 -59 -8 -131 -8
l-130 0 0 -80 0 -80 89 0 c119 0 121 -1 121 -65 0 -64 -2 -65 -121 -65 l-89 0
0 -100 0 -100 135 0 135 0 0 -42 c0 -91 4 -88 -139 -88 -69 0 -156 3 -193 7
l-68 6 0 363 0 363 33 4 c17 3 95 3 172 1 77 -2 152 -4 166 -4z m1115 -35 c63
-37 83 -84 84 -193 0 -166 -69 -240 -232 -250 l-78 -5 0 -123 0 -124 -65 0
-65 0 0 355 c0 195 0 358 0 363 0 11 145 18 232 10 58 -4 89 -13 124 -33z
m510 -125 c24 -91 68 -255 97 -365 30 -110 53 -202 51 -204 -7 -8 -80 -12
-111 -6 -30 5 -32 8 -49 85 l-17 80 -98 0 c-106 0 -99 4 -114 -65 -21 -99 -22
-100 -62 -99 -21 0 -50 1 -65 2 l-26 2 37 143 c21 78 64 242 96 364 66 250 53
232 164 229 l54 -1 43 -165z m1012 18 l3 -148 89 0 89 0 3 148 3 147 60 0 60
0 3 -367 2 -368 -65 0 -65 0 0 154 0 155 -90 3 -90 3 0 -157 0 -158 -70 0 -70
0 0 364 c0 282 3 366 13 370 6 2 37 4 67 3 l55 -2 3 -147z"/>
<path d="M7182 3477 c-34 -36 -42 -80 -42 -228 0 -168 15 -224 66 -245 29 -12
39 -12 68 0 58 24 66 53 66 241 0 176 -9 223 -48 244 -36 19 -86 13 -110 -12z"/>
<path d="M2975 3248 l0 -243 42 -3 c60 -4 106 18 129 64 16 33 19 61 19 184 0
205 -21 240 -144 240 l-46 0 0 -242z"/>
<path d="M4760 3376 l0 -116 59 0 c85 0 113 25 119 107 4 52 1 63 -21 88 -21
25 -33 29 -91 33 l-66 4 0 -116z"/>
<path d="M5337 3307 c-15 -67 -27 -128 -27 -135 0 -8 20 -12 63 -12 l64 0 -31
135 c-17 74 -34 135 -37 135 -3 0 -17 -55 -32 -123z"/>
<path d="M5067 5464 c1 -555 2 -1025 2 -1045 l1 -37 274 4 c298 4 361 12 490
62 297 116 454 367 488 778 36 446 -113 804 -432 1043 -186 139 -347 188 -640
198 l-185 6 2 -1009z"/>
</g>
</svg>
